<?xml version="1.0" encoding="iso-8859-1"?>
<!-- Generator: Adobe Illustrator 19.0.0, SVG Export Plug-In . SVG Version: 6.00 Build 0)  -->
<svg version="1.1" id="Layer_1" xmlns="http://www.w3.org/2000/svg" xmlns:xlink="http://www.w3.org/1999/xlink" x="0px" y="0px"
	 viewBox="0 0 502.003 502.003" style="enable-background:new 0 0 502.003 502.003;" xml:space="preserve">
<g>
	<g>
		<g>
			<path d="M500.027,226.969c-1.887-2.538-4.862-4.033-8.024-4.033h-53.03l2.281-6.532c1.82-5.214-0.931-10.917-6.145-12.738
				c-5.214-1.82-10.917,0.931-12.738,6.145l-4.583,13.126H83.217L19.444,40.311c-1.821-5.214-7.526-7.97-12.738-6.144
				c-5.214,1.82-7.965,7.523-6.144,12.737l61.471,176.031h-52.03c-3.168,0-6.15,1.502-8.036,4.048
				c-1.886,2.547-2.454,5.836-1.53,8.867l73.03,239.672c1.283,4.209,5.166,7.085,9.566,7.085h336.936
				c4.414,0,8.307-2.895,9.577-7.122l72.034-239.672C502.49,232.787,501.914,229.506,500.027,226.969z M412.532,462.608H90.44
				l-12.645-41.5h277.208c5.522,0,10-4.478,10-10c0-5.522-4.478-10-10-10h-283c-0.101,0-0.198,0.012-0.298,0.015l-12.173-39.95
				h232.632c5.522,0,10-4.478,10-10c0-5.522-4.478-10-10-10H53.438l-11.904-39.065h293.469c5.522,0,10-4.478,10-10
				c0-5.522-4.478-10-10-10H35.44l-11.936-39.172h455.052L412.532,462.608z"/>
			<path d="M439.69,190.548c1.092,0.382,2.203,0.563,3.297,0.563c4.134,0,8.001-2.583,9.441-6.706l48.016-137.5
				c1.82-5.214-0.931-10.917-6.145-12.737c-5.219-1.825-10.917,0.93-12.738,6.144l-48.016,137.5
				C431.725,183.024,434.476,188.727,439.69,190.548z"/>
			<path d="M328.267,351.173c0,5.522,4.478,10,10,10h30.735c5.522,0,10-4.478,10-10c0-5.522-4.478-10-10-10h-30.735
				C332.745,341.173,328.267,345.65,328.267,351.173z"/>
			<path d="M383.003,302.108h32c5.522,0,10-4.478,10-10c0-5.522-4.478-10-10-10h-32c-5.522,0-10,4.478-10,10
				C373.003,297.629,377.48,302.108,383.003,302.108z"/>
			<path d="M222.858,187.858c5.875,10.175,16.396,16.249,28.146,16.249c11.749,0,22.269-6.074,28.144-16.248l28.384-49.153
				c5.875-10.175,5.876-22.325,0.001-32.501c-5.281-9.148-14.317-14.981-24.626-16.067V51.3c0-17.592-14.312-31.903-31.903-31.903
				S219.101,33.709,219.101,51.3v38.838c-10.309,1.086-19.345,6.92-24.626,16.067c-5.875,10.176-5.874,22.326,0.001,32.502
				L222.858,187.858z M211.794,116.204c1.085-1.879,4.312-6.25,10.826-6.25h6.48c5.523,0,10-4.478,10-10V51.3
				c0-6.563,5.34-11.903,11.903-11.903c6.563,0,11.903,5.34,11.903,11.903v48.654c0,5.522,4.478,10,10,10h6.479
				c6.514,0,9.74,4.371,10.825,6.25c1.085,1.88,3.258,6.86,0,12.501l-28.384,49.153c-3.257,5.641-8.654,6.249-10.824,6.249
				c-2.169,0-7.568-0.608-10.825-6.25l-28.383-49.152C208.537,123.065,210.709,118.084,211.794,116.204z"/>
		</g>
	</g>
</g>
<g>
</g>
<g>
</g>
<g>
</g>
<g>
</g>
<g>
</g>
<g>
</g>
<g>
</g>
<g>
</g>
<g>
</g>
<g>
</g>
<g>
</g>
<g>
</g>
<g>
</g>
<g>
</g>
<g>
</g>
</svg>
